<svg viewBox="0 0 750 182" fill="none" xmlns="http://www.w3.org/2000/svg">
<path d="M124.241 142.955L135.955 131.241L175 170.286L163.286 182L124.241 142.955Z" fill="#935C3C"/>
<circle cx="124.241" cy="131.241" r="41.4137" fill="#FFD4D4"/>
<circle cx="82.8273" cy="89.8275" r="41.4137" fill="#74A991"/>
<circle cx="41.4137" cy="48.4137" r="41.4137" fill="#F2F7F5"/>
<path d="M214.205 147.332C207.99 147.332 202.362 145.734 197.319 142.538C192.312 139.306 188.335 134.565 185.387 128.315C182.475 122.03 181.019 114.324 181.019 105.197C181.019 95.8224 182.528 88.0277 185.547 81.8132C188.565 75.5632 192.578 70.8935 197.585 67.804C202.628 64.679 208.15 63.1165 214.151 63.1165C218.732 63.1165 222.55 63.8977 225.604 65.4602C228.693 66.9872 231.179 68.9048 233.061 71.2131C234.979 73.4858 236.435 75.723 237.429 77.9247H238.121V36.9091H260.76V146H238.388V132.896H237.429C236.364 135.169 234.854 137.424 232.901 139.661C230.984 141.863 228.48 143.692 225.391 145.148C222.337 146.604 218.608 147.332 214.205 147.332ZM221.396 129.274C225.053 129.274 228.143 128.28 230.664 126.291C233.221 124.267 235.174 121.444 236.523 117.822C237.908 114.2 238.601 109.956 238.601 105.091C238.601 100.226 237.926 96 236.577 92.4133C235.227 88.8267 233.274 86.0568 230.717 84.1037C228.161 82.1506 225.053 81.174 221.396 81.174C217.667 81.174 214.524 82.1861 211.967 84.2102C209.411 86.2344 207.475 89.0398 206.161 92.6264C204.847 96.2131 204.19 100.368 204.19 105.091C204.19 109.849 204.847 114.058 206.161 117.715C207.511 121.337 209.446 124.178 211.967 126.238C214.524 128.262 217.667 129.274 221.396 129.274ZM302.108 98.6989V146H279.417V64.1818H301.043V78.6172H302.002C303.813 73.8587 306.849 70.0945 311.111 67.3246C315.372 64.5192 320.539 63.1165 326.611 63.1165C332.293 63.1165 337.247 64.3594 341.473 66.8452C345.699 69.331 348.983 72.8821 351.327 77.4986C353.671 82.0795 354.843 87.5483 354.843 93.9048V146H332.151V97.9531C332.187 92.946 330.908 89.0398 328.316 86.2344C325.724 83.3935 322.155 81.973 317.609 81.973C314.555 81.973 311.856 82.63 309.513 83.9439C307.204 85.2578 305.393 87.1754 304.079 89.6967C302.801 92.1825 302.144 95.1832 302.108 98.6989ZM412.358 147.491C404.83 147.491 398.118 146.107 392.223 143.337C386.364 140.567 381.712 136.749 378.267 131.884C374.822 127.019 373.029 121.444 372.887 115.158H395.259C395.508 119.384 397.283 122.811 400.586 125.439C403.888 128.067 407.812 129.381 412.358 129.381C415.98 129.381 419.176 128.582 421.946 126.984C424.751 125.35 426.935 123.095 428.498 120.219C430.096 117.307 430.895 113.969 430.895 110.205C430.895 106.369 430.078 102.996 428.445 100.084C426.847 97.1719 424.627 94.8991 421.786 93.2656C418.945 91.6321 415.696 90.7976 412.038 90.7621C408.842 90.7621 405.735 91.419 402.717 92.733C399.734 94.0469 397.408 95.8402 395.739 98.1129L375.231 94.4375L380.398 36.9091H447.088V55.7656H399.414L396.591 83.0916H397.23C399.148 80.3928 402.042 78.1555 405.913 76.38C409.783 74.6044 414.116 73.7166 418.91 73.7166C425.479 73.7166 431.339 75.2614 436.488 78.3508C441.637 81.4403 445.703 85.6839 448.686 91.0817C451.669 96.4439 453.143 102.623 453.107 109.619C453.143 116.969 451.438 123.504 447.994 129.221C444.585 134.903 439.808 139.377 433.665 142.644C427.557 145.876 420.455 147.491 412.358 147.491ZM479.155 147.385C475.639 147.385 472.621 146.142 470.099 143.656C467.614 141.135 466.371 138.116 466.371 134.601C466.371 131.121 467.614 128.138 470.099 125.652C472.621 123.166 475.639 121.923 479.155 121.923C482.564 121.923 485.547 123.166 488.104 125.652C490.661 128.138 491.939 131.121 491.939 134.601C491.939 136.945 491.335 139.093 490.128 141.046C488.956 142.964 487.411 144.509 485.494 145.68C483.576 146.817 481.463 147.385 479.155 147.385ZM510.569 146V64.1818H532.568V78.4574H533.421C534.912 73.3793 537.416 69.544 540.931 66.9517C544.447 64.3239 548.495 63.0099 553.076 63.0099C554.213 63.0099 555.438 63.081 556.752 63.223C558.066 63.3651 559.22 63.5604 560.214 63.8089V83.9439C559.149 83.6243 557.675 83.3402 555.793 83.0916C553.911 82.843 552.188 82.7188 550.626 82.7188C547.288 82.7188 544.305 83.4467 541.677 84.9027C539.085 86.3232 537.025 88.3118 535.498 90.8686C534.007 93.4254 533.261 96.3729 533.261 99.7109V146H510.569ZM624.414 111.163V64.1818H647.106V146H625.32V131.138H624.467C622.621 135.933 619.549 139.786 615.252 142.697C610.991 145.609 605.788 147.065 599.645 147.065C594.176 147.065 589.364 145.822 585.21 143.337C581.055 140.851 577.805 137.317 575.462 132.737C573.153 128.156 571.982 122.669 571.946 116.277V64.1818H594.638V112.229C594.673 117.058 595.969 120.876 598.526 123.681C601.083 126.487 604.51 127.889 608.807 127.889C611.541 127.889 614.098 127.268 616.477 126.025C618.857 124.746 620.774 122.864 622.23 120.379C623.722 117.893 624.45 114.821 624.414 111.163ZM687.948 98.6989V146H665.257V64.1818H686.883V78.6172H687.842C689.653 73.8587 692.689 70.0945 696.95 67.3246C701.212 64.5192 706.379 63.1165 712.451 63.1165C718.133 63.1165 723.087 64.3594 727.313 66.8452C731.539 69.331 734.823 72.8821 737.167 77.4986C739.511 82.0795 740.683 87.5483 740.683 93.9048V146H717.991V97.9531C718.026 92.946 716.748 89.0398 714.156 86.2344C711.563 83.3935 707.994 81.973 703.449 81.973C700.395 81.973 697.696 82.63 695.352 83.9439C693.044 85.2578 691.233 87.1754 689.919 89.6967C688.641 92.1825 687.984 95.1832 687.948 98.6989Z" fill="white"/>
</svg>
